<svg width="50" height="43" viewBox="0 0 50 43" fill="none" xmlns="http://www.w3.org/2000/svg">
<g clip-path="url(#clip0_30_178)">
<path fill-rule="evenodd" clip-rule="evenodd" d="M11.0623 11.9639C14.7033 9.57402 19.2405 7.56055 24.2469 7.56055C29.2532 7.56055 33.7904 9.57402 37.4314 11.9639C41.0857 14.3624 43.9785 17.2325 45.7296 19.1608L45.7442 19.1771C46.5264 20.0637 46.938 21.1872 46.938 22.3272C46.938 23.4672 46.5264 24.5907 45.7442 25.4773L45.7296 25.4936C43.9785 27.4219 41.0857 30.292 37.4314 32.6904C33.7904 35.0803 29.2532 37.0938 24.2469 37.0938C19.2405 37.0938 14.7033 35.0803 11.0623 32.6904C7.40818 30.292 4.51533 27.4219 2.7641 25.4936L2.74948 25.4773C1.96743 24.5907 1.55566 23.4672 1.55566 22.3272C1.55566 21.1872 1.96743 20.0637 2.74948 19.1771L2.7641 19.1608C4.51533 17.2325 7.40818 14.3624 11.0623 11.9639ZM24.2469 28.9719C28.275 28.9719 31.5405 25.9969 31.5405 22.327C31.5405 18.6571 28.275 15.6821 24.2469 15.6821C20.2187 15.6821 16.9533 18.6571 16.9533 22.327C16.9533 25.9969 20.2187 28.9719 24.2469 28.9719Z" fill="black"/>
</g>
<ellipse cx="3.16229" cy="2.91004" rx="3.16229" ry="2.91004" transform="matrix(-1.00324 -0.0472963 0.0564132 -0.993237 7.20703 14.8243)" fill="black"/>
<rect width="6.19226" height="4.91415" transform="matrix(-0.778845 0.609192 -0.693996 -0.736461 10.08 13.6753)" fill="black"/>
<path d="M2.48804 13.825C2.48772 13.7578 2.38791 13.6951 2.36794 13.6387C2.35578 13.6044 2.32185 13.5781 2.30042 13.5488C2.28398 13.5264 2.27338 13.5076 2.25813 13.4858C2.22244 13.4349 2.16714 13.3519 2.1676 13.2895C2.16794 13.243 2.12693 13.0472 2.0853 13.0229" stroke="black" stroke-linecap="round"/>
<path d="M2.60828 13.8883C2.54863 13.8713 2.51789 13.7622 2.48315 13.7181C2.4561 13.6838 2.42265 13.6479 2.40281 13.6097C2.37362 13.5535 2.29787 13.5062 2.2555 13.4539C2.2293 13.4215 2.15871 13.3648 2.16388 13.3207C2.16997 13.2687 2.10168 13.1945 2.0843 13.1521" stroke="black" stroke-linecap="round"/>
<path d="M2.70898 14.118C2.68115 14.1121 2.65021 14.0596 2.63442 14.0411C2.6012 14.0022 2.56041 13.9702 2.52577 13.9321C2.46596 13.8663 2.39719 13.812 2.33332 13.7511C2.29075 13.7104 2.27201 13.658 2.24339 13.6101C2.21568 13.5638 2.16192 13.5068 2.12454 13.4671C2.04583 13.3836 2.01204 13.2715 1.95028 13.1779C1.89598 13.0957 1.86135 13.0053 1.82904 12.914C1.7979 12.826 1.72766 12.6824 1.73867 12.5884" stroke="black" stroke-linecap="round"/>
<ellipse cx="3.1577" cy="2.91503" rx="3.1577" ry="2.91503" transform="matrix(-0.932505 -0.343979 0.408989 -0.920294 18.16 8.57629)" fill="black"/>
<rect width="6.18805" height="4.91774" transform="matrix(-0.955285 0.344005 -0.39134 -0.902026 21.2874 8.34595)" fill="black"/>
<path d="M14.059 6.22607C14.0827 6.16254 14.0109 6.07357 14.0123 6.0143C14.0131 5.9782 13.9905 5.94328 13.9807 5.90924C13.9732 5.88313 13.97 5.86218 13.9634 5.83709C13.9479 5.77835 13.9254 5.68345 13.9482 5.62462C13.9652 5.58078 13.9967 5.38353 13.9661 5.34816" stroke="black" stroke-linecap="round"/>
<path d="M14.1497 6.32178C14.0994 6.28791 14.1095 6.17569 14.0925 6.12366C14.0792 6.08315 14.0605 6.0393 14.0554 5.99731C14.048 5.93553 13.9934 5.86823 13.9721 5.80616C13.959 5.76777 13.9126 5.69311 13.9333 5.653C13.9578 5.60567 13.9198 5.51521 13.9186 5.46992" stroke="black" stroke-linecap="round"/>
<path d="M14.1626 6.56897C14.1384 6.55505 14.128 6.49623 14.1197 6.47406C14.1023 6.42741 14.0752 6.38503 14.0562 6.33871C14.0232 6.25871 13.9777 6.18691 13.9392 6.11028C13.9136 6.05921 13.9147 6.00403 13.9048 5.95032C13.8952 5.89831 13.8649 5.82839 13.8438 5.77976C13.7994 5.67737 13.8077 5.56136 13.7829 5.45456C13.7611 5.36064 13.7608 5.26496 13.763 5.16902C13.7651 5.0766 13.7503 4.91994 13.7944 4.83442" stroke="black" stroke-linecap="round"/>
<ellipse cx="3.01613" cy="3.06127" rx="3.01613" ry="3.06127" transform="matrix(-0.512806 -0.838171 0.906425 -0.460308 32.0527 8.71277)" fill="black"/>
<rect width="6.06" height="5.02475" transform="matrix(-1.0017 -0.283466 0.309073 -0.90655 34.6477 10.3195)" fill="black"/>
<path d="M30.4746 4.53943C30.5369 4.50352 30.5421 4.39317 30.584 4.34778C30.6095 4.32013 30.6158 4.27999 30.6317 4.2479C30.6438 4.22328 30.6557 4.2051 30.6678 4.18178C30.6962 4.12718 30.744 4.0404 30.8022 4.0076C30.8456 3.98316 31.0059 3.84747 31.0064 3.80242" stroke="black" stroke-linecap="round"/>
<path d="M30.4797 4.66589C30.4639 4.6108 30.549 4.52913 30.5715 4.47888C30.5891 4.43976 30.6046 4.39489 30.6296 4.35929C30.6663 4.30691 30.6701 4.22329 30.6962 4.16278C30.7124 4.12537 30.7277 4.04073 30.7714 4.0213C30.823 3.99837 30.8557 3.90624 30.8859 3.87027" stroke="black" stroke-linecap="round"/>
<path d="M30.3196 4.8656C30.3103 4.84096 30.3427 4.78918 30.3515 4.76718C30.37 4.72087 30.3781 4.67239 30.3951 4.62541C30.4245 4.54429 30.4385 4.46235 30.4612 4.38067C30.4764 4.32623 30.5152 4.28387 30.5444 4.23638C30.5728 4.19039 30.5972 4.11858 30.6143 4.06866C30.6501 3.96352 30.7364 3.87787 30.7906 3.7805C30.8382 3.69488 30.9038 3.62015 30.9716 3.54668C31.0368 3.4759 31.1331 3.34537 31.2263 3.30394" stroke="black" stroke-linecap="round"/>
<ellipse cx="2.93285" cy="3.14115" rx="2.93285" ry="3.14115" transform="matrix(-0.146903 -0.977713 1.002 -0.124963 41.984 14.8802)" fill="black"/>
<rect width="5.98621" height="5.08441" transform="matrix(-0.829892 -0.603487 0.642365 -0.733214 43.7592 17.2372)" fill="black"/>
<path d="M42.181 10.4698C42.2534 10.457 42.3023 10.356 42.3594 10.3276C42.3942 10.3103 42.4162 10.275 42.4438 10.2504C42.4649 10.2315 42.4832 10.2185 42.5038 10.2008C42.5521 10.1593 42.6312 10.0943 42.6986 10.0831C42.7488 10.0747 42.9523 10.0015 42.9707 9.95969" stroke="black" stroke-linecap="round"/>
<path d="M42.1353 10.5891C42.1425 10.5325 42.2544 10.4847 42.2954 10.4453C42.3274 10.4147 42.3598 10.3781 42.3973 10.3532C42.4524 10.3166 42.4893 10.24 42.5379 10.1923C42.5679 10.1628 42.6159 10.089 42.6644 10.0854C42.7216 10.0812 42.7889 10.0062 42.8314 9.9827" stroke="black" stroke-linecap="round"/>
<path d="M41.9061 10.7222C41.9074 10.6961 41.9582 10.6587 41.9752 10.6411C42.0109 10.6041 42.0378 10.5616 42.0724 10.5235C42.1322 10.4577 42.1779 10.386 42.2317 10.3174C42.2676 10.2718 42.3207 10.2452 42.3669 10.2106C42.4117 10.1772 42.4631 10.1184 42.4989 10.0776C42.5743 9.99153 42.6889 9.94036 42.7783 9.86762C42.8568 9.80367 42.9478 9.75582 43.0402 9.70985C43.1293 9.66556 43.2711 9.57588 43.3745 9.5682" stroke="black" stroke-linecap="round"/>
<defs>
<clipPath id="clip0_30_178">
<rect width="45.3824" height="41.3462" fill="white" transform="translate(1.55566 1.65393)"/>
</clipPath>
</defs>
</svg>
