<svg width="50" height="50" viewBox="0 0 50 50" fill="none" xmlns="http://www.w3.org/2000/svg">
<g clip-path="url(#clip0_18_234)">
<path fill-rule="evenodd" clip-rule="evenodd" d="M7.14286 21.4286C7.14286 13.5388 13.5388 7.14286 21.4286 7.14286C29.3184 7.14286 35.7143 13.5388 35.7143 21.4286C35.7143 29.3184 29.3184 35.7143 21.4286 35.7143C13.5388 35.7143 7.14286 29.3184 7.14286 21.4286ZM21.4286 0C9.59389 0 0 9.59389 0 21.4286C0 33.2633 9.59389 42.8571 21.4286 42.8571C26.0564 42.8571 30.3415 41.39 33.8444 38.8957L43.9032 48.9546C45.2979 50.3493 47.5593 50.3493 48.9539 48.9546C50.3486 47.56 50.3486 45.2986 48.9539 43.9039L38.8954 33.8452C41.39 30.3422 42.8571 26.0567 42.8571 21.4286C42.8571 9.59389 33.2633 0 21.4286 0Z" fill="black"/>
</g>
<defs>
<clipPath id="clip0_18_234">
<rect width="50" height="50" fill="white"/>
</clipPath>
</defs>
</svg>
