<svg width="50" height="50" viewBox="0 0 50 50" fill="none" xmlns="http://www.w3.org/2000/svg">
<path fill-rule="evenodd" clip-rule="evenodd" d="M25 28.5714C32.8898 28.5714 39.2857 22.1755 39.2857 14.2857L39.285 14.1366C35.2202 14.0271 31.5204 12.4484 28.7 9.91575C25.7751 12.5423 21.9045 14.1429 17.6617 14.1429C15.2188 14.1429 12.8961 13.6117 10.8061 12.6576C10.7455 13.1919 10.7143 13.7352 10.7143 14.2857C10.7143 22.1755 17.1102 28.5714 25 28.5714ZM30.0368 6.20186C32.2162 8.66268 35.3117 10.2855 38.789 10.5371C37.1422 4.46568 31.5926 0 25 0C18.9352 0 13.7531 3.77925 11.6803 9.11118C13.4678 10.0436 15.5007 10.5714 17.6617 10.5714C21.5227 10.5714 24.9873 8.88461 27.3632 6.20189C27.7021 5.81918 28.1888 5.60007 28.7 5.60007C29.2112 5.60007 29.6979 5.81918 30.0368 6.20186ZM1.82866 47.7407C5.54406 38.5932 14.519 32.143 25.0004 32.143C35.4819 32.143 44.4568 38.5932 48.1722 47.7407C48.6218 48.8475 47.765 50 46.5704 50H3.43033C2.23578 50 1.37914 48.8475 1.82866 47.7407Z" fill="oklch(50% 0.134 242.749)"/>
</svg>
