<svg width="50" height="50" viewBox="0 0 50 50" fill="none" xmlns="http://www.w3.org/2000/svg">
<path fill-rule="evenodd" clip-rule="evenodd" d="M30.8894 3.58015C30.8894 2.49676 31.542 1.52005 32.5429 1.10546C33.5438 0.69087 34.6959 0.920038 35.462 1.6861L44.0299 10.254C45.076 11.3001 45.076 12.9961 44.0299 14.0421L35.462 22.61C34.6959 23.3761 33.5438 23.6053 32.5429 23.1907C31.542 22.7761 30.8894 21.7994 30.8894 20.716V15.7191H25C17.5086 15.7191 11.4356 21.7922 11.4356 29.2836C11.4356 36.775 17.5086 42.8482 25 42.8482C32.4915 42.8482 38.5646 36.775 38.5646 29.2836C38.5646 27.3111 40.1635 25.7122 42.136 25.7122C44.1085 25.7122 45.7074 27.3111 45.7074 29.2836C45.7074 40.72 36.4364 49.991 25 49.991C13.5637 49.991 4.29272 40.72 4.29272 29.2836C4.29272 17.8473 13.5637 8.57629 25 8.57629H30.8894V3.58015Z" fill="white"/>
</svg>
