<svg width="50" height="50" viewBox="0 0 50 50" fill="none" xmlns="http://www.w3.org/2000/svg">
<g clip-path="url(#clip0_18_242)">
<path fill-rule="evenodd" clip-rule="evenodd" d="M5.76752 12.6447C7.50448 11.7101 9.67023 12.3605 10.6048 14.0975C11.3042 15.3972 12.2162 16.5969 13.3033 17.6543C13.3972 17.7346 13.4877 17.8204 13.5744 17.9118C16.4534 20.5799 20.478 22.2773 25.0018 22.2773C29.5111 22.2773 33.5243 20.5909 36.4014 17.9376C36.5039 17.8275 36.6118 17.7253 36.7243 17.6309C37.8011 16.5792 38.7047 15.3876 39.3989 14.0975C40.3336 12.3605 42.4993 11.7101 44.2361 12.6447C45.9732 13.5794 46.6236 15.7451 45.6889 17.4821C45.2204 18.3527 44.6925 19.1881 44.1104 19.9838L48.7225 23.8492C50.2343 25.1162 50.4329 27.3688 49.1657 28.8805C47.8989 30.3923 45.6465 30.5907 44.1347 29.3238L38.9929 25.0148C37.7215 25.9189 36.3489 26.7011 34.8961 27.3449L37.0989 32.8923C37.8268 34.7255 36.9307 36.8017 35.0975 37.5296C33.2643 38.2574 31.1881 37.3614 30.4602 35.5283L27.9647 29.2437C26.9932 29.3602 26.0042 29.4202 25.0018 29.4202C23.9943 29.4202 23.0002 29.3596 22.0237 29.2419L19.5276 35.5283C18.7997 37.3614 16.7234 38.2574 14.8902 37.5296C13.057 36.8017 12.161 34.7255 12.8889 32.8923L15.0941 27.3389C13.6454 26.6959 12.2769 25.9153 11.0087 25.0134L5.86545 29.3238C4.3537 30.5907 2.10114 30.3923 0.834188 28.8805C-0.432758 27.3688 -0.23431 25.1162 1.27744 23.8492L5.89206 19.9819C5.31041 19.1867 4.78291 18.352 4.31481 17.4821C3.38016 15.7451 4.03059 13.5794 5.76752 12.6447Z" fill="black"/>
</g>
<defs>
<clipPath id="clip0_18_242">
<rect width="50" height="50" fill="white"/>
</clipPath>
</defs>
</svg>
