<svg width="1705" height="178" viewBox="0 0 1705 178" fill="none" xmlns="http://www.w3.org/2000/svg">
<path d="M68.9828 118.6V159H0.182813V20.8H72.7828C96.6495 20.8 114.183 24.7333 125.383 32.6C136.583 40.3333 142.183 53.8 142.183 73C142.183 87.5333 137.449 98.2667 127.983 105.2C135.983 119.467 142.049 137.4 146.183 159H80.3828C79.3161 145.533 77.4495 133.667 74.7828 123.4L73.3828 118.6H68.9828ZM68.9828 102.4H74.7828C76.3828 102.4 77.7162 101.867 78.7828 100.8C79.8495 99.7333 80.3828 98.3333 80.3828 96.6V84.6C80.3828 82.8667 79.8495 81.5333 78.7828 80.6C77.7162 79.5333 76.3828 79 74.7828 79H68.9828V102.4ZM155.066 100.2C155.066 79.8 159.666 64.4667 168.866 54.2C178.199 43.9333 193.399 38.8 214.466 38.8C235.532 38.8 250.199 43.0667 258.466 51.6C266.732 60.1333 270.866 74.1333 270.866 93.6L269.866 109H214.666V115.8C217.999 116.6 222.866 117 229.266 117C242.866 117 253.866 116.4 262.266 115.2L266.466 114.6V152.2C265.399 152.867 263.666 153.733 261.266 154.8C258.999 155.733 253.466 157 244.666 158.6C235.866 160.2 226.066 161 215.266 161C193.932 161 178.532 155.933 169.066 145.8C159.732 135.667 155.066 120.467 155.066 100.2ZM211.666 91.2V99H223.066V91.2C223.066 89.4667 222.466 88.0667 221.266 87C220.199 85.9333 218.799 85.4 217.066 85.4C215.466 85.4 214.132 85.9333 213.066 87C212.132 88.0667 211.666 89.4667 211.666 91.2ZM360.014 123.6H368.814C389.214 123.6 399.414 132.067 399.414 149C399.414 157.933 396.214 164.933 389.814 170C383.414 175.067 372.147 177.6 356.014 177.6H323.014C306.214 177.6 294.681 175.4 288.414 171C282.281 166.6 279.214 160.733 279.214 153.4C279.214 138.6 286.947 131.2 302.414 131.2H306.814C304.547 130.8 302.481 129.933 300.614 128.6C298.747 127.267 297.814 125.6 297.814 123.6C297.814 119.6 301.081 117 307.614 115.8C299.347 115.8 292.747 113 287.814 107.4C282.881 101.8 280.414 93.6667 280.414 83C280.414 68.2 284.214 57.4667 291.814 50.8C299.547 44 312.081 40.6 329.414 40.6H398.814V96.6H392.014C389.881 111.667 379.214 119.2 360.014 119.2V123.6ZM349.614 137.6H327.614C325.881 137.6 324.481 138.133 323.414 139.2C322.347 140.133 321.814 141.467 321.814 143.2C321.814 144.8 322.347 146.2 323.414 147.4C324.481 148.467 325.881 149 327.614 149H349.614C351.347 149 352.747 148.467 353.814 147.4C354.881 146.2 355.414 144.8 355.414 143.2C355.414 141.467 354.881 140.133 353.814 139.2C352.747 138.133 351.347 137.6 349.614 137.6ZM332.814 91.2V103.6C332.814 107.333 334.681 109.2 338.414 109.2C340.014 109.2 341.347 108.667 342.414 107.6C343.614 106.533 344.214 105.2 344.214 103.6V91.2C344.214 89.4667 343.614 88.0667 342.414 87C341.347 85.9333 339.947 85.4 338.214 85.4C336.614 85.4 335.281 85.9333 334.214 87C333.281 88.0667 332.814 89.4667 332.814 91.2ZM440.33 50.6C430.196 50.6 422.73 48.6 417.93 44.6C413.13 40.6 410.73 34.2 410.73 25.4C410.73 16.6 413.13 10.2667 417.93 6.4C422.863 2.53333 430.33 0.599989 440.33 0.599989C460.33 0.599989 470.33 8.66666 470.33 24.8C470.33 34 467.863 40.6 462.93 44.6C457.996 48.6 450.463 50.6 440.33 50.6ZM410.73 159V55.2H470.33V159H410.73ZM536.219 38.8C546.752 38.8 556.219 39.4 564.619 40.6C573.152 41.8 579.019 43 582.219 44.2L586.819 46V96C577.752 91.3333 564.219 89 546.219 89V93.8C562.752 95.4 574.085 98.2667 580.219 102.4C586.352 106.533 589.419 114.067 589.419 125C589.419 135.933 585.352 144.667 577.219 151.2C569.085 157.733 554.885 161 534.619 161C523.819 161 514.219 160.4 505.819 159.2C497.419 158 491.685 156.8 488.619 155.6L484.019 153.8V110.4C487.752 112.267 493.485 114 501.219 115.6C509.085 117.067 517.152 117.8 525.419 117.8V113C511.152 111.667 500.352 108.4 493.019 103.2C485.685 98 482.019 89.6 482.019 78C482.019 66.2667 486.485 56.8 495.419 49.6C504.352 42.4 517.952 38.8 536.219 38.8ZM671.583 96.6V105.6H689.583V152.8C688.916 153.467 687.783 154.267 686.183 155.2C684.716 156 680.783 157.2 674.383 158.8C667.983 160.267 660.583 161 652.183 161C621.649 161 606.383 147.667 606.383 121V96.6H598.583V46.8C604.316 45.0667 609.383 41.8667 613.783 37.2C618.183 32.5333 621.183 28.3333 622.783 24.6L625.183 18.8H675.383V40.8H689.583V96.6H671.583ZM760.759 159H701.159V40.8H751.359L753.359 55.4C753.626 55 753.959 54.4667 754.359 53.8C754.759 53.1333 755.893 52 757.759 50.4C759.626 48.6667 761.759 47.1333 764.159 45.8C770.826 42.4667 779.226 40.8 789.359 40.8V104.4L760.759 101.6V159ZM862.867 160.8H854.867C835.401 160.8 820.801 156 811.067 146.4C801.467 136.8 796.667 121.333 796.667 100C796.667 78.6667 801.467 63.1333 811.067 53.4C820.801 43.6667 835.401 38.8 854.867 38.8H862.867C882.334 38.8 896.934 43.6667 906.667 53.4C916.401 63.1333 921.267 78.6667 921.267 100C921.267 121.333 916.401 136.8 906.667 146.4C897.067 156 882.467 160.8 862.867 160.8ZM853.267 98.4V115.2C853.267 116.933 853.734 118.333 854.667 119.4C855.734 120.467 857.067 121 858.667 121C860.401 121 861.801 120.467 862.867 119.4C864.067 118.333 864.667 116.933 864.667 115.2V98.4C864.667 96.8 864.067 95.4667 862.867 94.4C861.801 93.2 860.467 92.6 858.867 92.6C857.267 92.6 855.934 93.2 854.867 94.4C853.801 95.4667 853.267 96.8 853.267 98.4ZM1064.63 159L1063.43 137.6H1051.23L1050.03 159H987.027C988.36 137.133 991.093 114.733 995.227 91.8C999.36 68.7333 1003.16 51.1333 1006.63 39L1011.63 20.8H1106.43C1107.89 25.6 1109.76 32.2667 1112.03 40.8C1114.29 49.3333 1117.63 65.7333 1122.03 90C1126.43 114.133 1129.43 137.133 1131.03 159H1064.63ZM1054.23 88L1052.63 119.2H1062.03L1060.63 88H1054.23ZM1215.44 161C1208.37 161 1202.97 159.667 1199.24 157V177.6H1139.64V40.8H1189.84L1191.84 55.4C1194.24 48.3333 1199.57 43.4 1207.84 40.6C1211.3 39.4 1215.17 38.8 1219.44 38.8C1234.37 38.8 1245.57 44.5333 1253.04 56C1260.5 67.3333 1264.24 82.2667 1264.24 100.8C1264.24 119.333 1259.97 134 1251.44 144.8C1243.04 155.6 1231.04 161 1215.44 161ZM1196.24 98.4V115.2C1196.24 116.933 1196.7 118.333 1197.64 119.4C1198.7 120.467 1200.04 121 1201.64 121C1203.37 121 1204.77 120.467 1205.84 119.4C1207.04 118.333 1207.64 116.933 1207.64 115.2V98.4C1207.64 96.8 1207.04 95.4667 1205.84 94.4C1204.77 93.2 1203.44 92.6 1201.84 92.6C1200.24 92.6 1198.9 93.2 1197.84 94.4C1196.77 95.4667 1196.24 96.8 1196.24 98.4ZM1351.57 161C1344.5 161 1339.1 159.667 1335.37 157V177.6H1275.77V40.8H1325.97L1327.97 55.4C1330.37 48.3333 1335.7 43.4 1343.97 40.6C1347.44 39.4 1351.3 38.8 1355.57 38.8C1370.5 38.8 1381.7 44.5333 1389.17 56C1396.64 67.3333 1400.37 82.2667 1400.37 100.8C1400.37 119.333 1396.1 134 1387.57 144.8C1379.17 155.6 1367.17 161 1351.57 161ZM1332.37 98.4V115.2C1332.37 116.933 1332.84 118.333 1333.77 119.4C1334.84 120.467 1336.17 121 1337.77 121C1339.5 121 1340.9 120.467 1341.97 119.4C1343.17 118.333 1343.77 116.933 1343.77 115.2V98.4C1343.77 96.8 1343.17 95.4667 1341.97 94.4C1340.9 93.2 1339.57 92.6 1337.97 92.6C1336.37 92.6 1335.04 93.2 1333.97 94.4C1332.9 95.4667 1332.37 96.8 1332.37 98.4ZM1510.13 160.8C1495.73 160.8 1485.53 158.2 1479.53 153C1473.53 147.667 1470.53 139 1470.53 127C1470.53 115 1473.53 106.467 1479.53 101.4C1485.66 96.3333 1495.86 93.8 1510.13 93.8C1524.53 93.8 1534.79 96.4 1540.93 101.6C1547.19 106.667 1550.33 115.2 1550.33 127.2C1550.33 139.067 1547.26 147.667 1541.13 153C1534.99 158.2 1524.66 160.8 1510.13 160.8ZM1510.13 86C1495.73 86 1485.53 83.4 1479.53 78.2C1473.53 73 1470.53 64.4 1470.53 52.4C1470.53 40.2667 1473.53 31.7333 1479.53 26.8C1485.66 21.7333 1495.86 19.2 1510.13 19.2C1524.53 19.2 1534.79 21.7333 1540.93 26.8C1547.19 31.8667 1550.33 40.4 1550.33 52.4C1550.33 64.2667 1547.26 72.8667 1541.13 78.2C1534.99 83.4 1524.66 86 1510.13 86ZM1563.07 20.8H1635.27C1657.54 20.8 1674.54 26.1333 1686.27 36.8C1698.14 47.4667 1704.07 64.8667 1704.07 89C1704.07 135.667 1680.21 159 1632.47 159H1563.07V20.8ZM1630.27 79V113.6H1635.87C1637.47 113.6 1638.81 113.067 1639.87 112C1641.07 110.933 1641.67 109.533 1641.67 107.8V84.6C1641.67 83 1641.07 81.6667 1639.87 80.6C1638.81 79.5333 1637.47 79 1635.87 79H1630.27Z" fill="white"/>
</svg>
